<?xml version="1.0" encoding="UTF-8"?>
<svg width="42px" height="34px" viewBox="0 0 42 34" version="1.1" xmlns="http://www.w3.org/2000/svg" xmlns:xlink="http://www.w3.org/1999/xlink">
    <title>6BC745EF-F66E-403E-ACC9-23FF3CAB55E7</title>
    <g id="Page-1" stroke="none" stroke-width="1" fill="none" fill-rule="evenodd">
        <g id="Home---Desktop" transform="translate(-213.000000, -960.000000)" fill-rule="nonzero">
            <g id="Hero-#1-Copy" transform="translate(0.000000, 730.000000)">
                <g id="Product-selector" transform="translate(150.000000, 180.000000)">
                    <g id="icon" transform="translate(63.000000, 50.000000)">
                        <g id="Group-Copy" transform="translate(0.000000, 1.821429)">
                            <path d="M41,4.63799978 L41,25.7191431 C41,28.282874 38.8988877,30.3571429 36.301979,30.3571429 L4.69802096,30.3571429 C4.27072904,30.3571429 3.8609543,30.3064982 3.48496244,30.1885333 C1.46924589,29.6657199 0,27.8610411 0,25.7191431 L0,4.63799978 C0,2.07426887 2.10111235,0 4.69802096,0 L36.301979,0 C38.8988877,0 41,2.07426887 41,4.63799978 Z" id="Path" fill="#D9DCF1"></path>
                            <path d="M11.8885695,8.55119086 C11.8885695,10.4401125 10.3678626,11.9714166 8.49201307,11.9714166 C6.61585251,11.9714166 5.09514563,10.4401125 5.09514563,8.55119086 C5.09514563,6.66195601 6.61585251,5.13065187 8.49201307,5.13065187 C10.3678626,5.13065187 11.8885695,6.66195601 11.8885695,8.55119086 Z" id="Path" fill="#A4AAD0"></path>
                            <path d="M41,21.7370336 L41,25.6721381 C41,28.2618518 38.9063189,30.3571429 36.3185952,30.3571429 L4.82641518,30.3571429 C4.40063453,30.3571429 3.9923091,30.3059849 3.61764706,30.1868245 L24.4198039,9.36867081 C25.5771417,8.21044306 27.4838034,8.21044306 28.6414529,9.36867081 L41,21.7370336 Z" id="Path" fill="#6F759D"></path>
                            <path d="M28.9411765,30.3571429 L4.66531643,30.3571429 C4.24099905,30.3571429 3.83407689,30.3063356 3.46070243,30.187992 C1.45901797,29.6635002 0,27.8530278 0,25.7042536 L0,25.1797619 L9.77141341,15.4343771 C10.9250845,14.2837791 12.8251937,14.2837791 13.9785541,15.4343771 L28.9411765,30.3571429 Z" id="Path" fill="#A4AAD0"></path>
                        </g>
                    </g>
                </g>
            </g>
        </g>
    </g>
</svg>